HIERARCHY
ROOT HipCenter
{
    OFFSET 0.0 0.0 -0.0
    CHANNELS 6 Xposition Yposition Zposition Zrotation Xrotation Yrotation
    JOINT Spine
    {
        OFFSET 0.0 12.102405548095703 0.0
        CHANNELS 3 Zrotation Xrotation Yrotation
        JOINT ShoulderCenter
        {
            OFFSET 0.0 33.39867401123047 0.0
            CHANNELS 3 Zrotation Xrotation Yrotation
            JOINT LeftShoulder
            {
                OFFSET 19.018089294433594 0.0 0.0
                CHANNELS 3 Zrotation Xrotation Yrotation
                JOINT LeftElbow
                {
                    OFFSET 29.74721908569336 0.0 0.0
                    CHANNELS 3 Zrotation Xrotation Yrotation
                    JOINT LeftWrist
                    {
                        OFFSET 29.610109329223633 0.0 0.0
                        CHANNELS 3 Zrotation Xrotation Yrotation
                        JOINT LeftHand
                        {
                            OFFSET 4.401429176330566 0.0 0.0
                            CHANNELS 3 Zrotation Xrotation Yrotation
                            End Site
                            {
                                OFFSET 1.7605717182159424 0.0 0.0
                            }
                        }
                    }
                }
            }
            JOINT RightShoulder
            {
                OFFSET -19.018089294433594 0.0 0.0
                CHANNELS 3 Zrotation Xrotation Yrotation
                JOINT RightElbow
                {
                    OFFSET -29.74721908569336 0.0 0.0
                    CHANNELS 3 Zrotation Xrotation Yrotation
                    JOINT RightWrist
                    {
                        OFFSET -29.610109329223633 0.0 0.0
                        CHANNELS 3 Zrotation Xrotation Yrotation
                        JOINT RightHand
                        {
                            OFFSET -4.401429176330566 0.0 0.0
                            CHANNELS 3 Zrotation Xrotation Yrotation
                            End Site
                            {
                                OFFSET -1.7605717182159424 0.0 0.0
                            }
                        }
                    }
                }
            }
            End Site
            {
                OFFSET 0.0 13.359467506408691 0.0
            }
        }
    }
    JOINT LeftHip
    {
        OFFSET 13.970595359802246 0.0 0.0
        CHANNELS 3 Zrotation Xrotation Yrotation
        JOINT LeftKnee
        {
            OFFSET 0.0 -40.64476013183594 0.0
            CHANNELS 3 Zrotation Xrotation Yrotation
            JOINT LeftAnkle
            {
                OFFSET 0.0 -44.77924728393555 0.0
                CHANNELS 3 Zrotation Xrotation Yrotation
                JOINT LeftFoot
                {
                    OFFSET 0.0 -10.066080093383789 0.0
                    CHANNELS 3 Zrotation Xrotation Yrotation
                    End Site
                    {
                        OFFSET 0.0 0.0 4.026432037353516
                    }
                }
            }
        }
    }
    JOINT RightHip
    {
        OFFSET -13.970595359802246 0.0 0.0
        CHANNELS 3 Zrotation Xrotation Yrotation
        JOINT RightKnee
        {
            OFFSET 0.0 -40.64476013183594 0.0
            CHANNELS 3 Zrotation Xrotation Yrotation
            JOINT RightAnkle
            {
                OFFSET 0.0 -44.77924728393555 0.0
                CHANNELS 3 Zrotation Xrotation Yrotation
                JOINT RightFoot
                {
                    OFFSET 0.0 -10.066080093383789 0.0
                    CHANNELS 3 Zrotation Xrotation Yrotation
                    End Site
                    {
                        OFFSET 0.0 0.0 4.026432037353516
                    }
                }
            }
        }
    }
}
MOTION
Frames: 6
Frame Time: 0.03333333333333333
33.39999771118164 1.100000023841858 -132.79998779296875 0.47350082491475803 1.4201593637476844 78.61133960901823 -2.813333699576968 5.881458355808807 0.09608615524324705 2.2778419756153434e-08 -2.5589603925929816e-07 -16.55270578290013 103.00092511723024 4.596821986239258 168.16797638701226 -2.510758744446292e-06 -9.961363955678414e-07 29.239470696444204 -6.816316688153093e-07 -19.76177749950292 15.533372555218746 -3.1805546814635168e-15 0.0 0.0 -95.52443887613715 -5.711271414101981 179.19814224826186 1.4050680241812305e-06 1.6312247774586543e-06 -26.346464682954135 179.9999960166326 -41.6874060426238 135.75040184504562 -7.951386703658792e-15 0.0 0.0 11.199086478783743 12.158498745594773 -58.29131614723922 0.08360441939788528 -0.204131882760457 0.24910041516003809 111.18038383709238 -35.39198363785448 169.24735923799034 -2.3854160110976376e-15 3.1805546814635168e-15 -3.1805546814635168e-15 -14.368480559687097 4.557705674642658 50.246263204599956 -0.4878493419173304 -0.5030763067985591 -0.7616282965934257 -95.84417929642669 -23.42402693985304 -168.25817443369846 8.845054417577076e-32 3.1867667023257502e-15 -3.1805546814635168e-15
33.39999771118164 1.100000023841858 -132.79998779296875 -1.8933931936764035 -5.191637614290552 78.18368783898347 7.393033741125002 4.3672680162953 -0.14661645966141473 -1.6869167707727437e-07 -7.023268037624272e-07 -16.362496880448877 99.3296829367981 8.409640931698425 169.8280722686711 -1.5354926751578113e-06 2.494027854454629e-06 28.77634040833506 3.5448284014623025e-07 -19.259373660361792 16.424488828038747 -6.361109362927035e-15 6.361109362927035e-15 -6.361109362927035e-15 -99.7857149688801 -5.572705731963735 -179.1520201650509 -2.0244162923704967e-06 -4.3807393735550104e-07 -27.406832405364536 -179.9999953190848 -35.44666432433604 136.83125494149354 3.1805546814635168e-15 6.3611093629270335e-15 1.5902773407317582e-15 17.894866251794173 11.432123251461995 -57.27357625911505 0.22457315713918122 -0.2828509861793476 0.33979525245481723 110.61147867396744 -36.12296586846749 168.4219643458363 -3.975693351829396e-15 -3.1805546814635168e-15 1.5902773407317582e-15 -7.730716884167211 3.4700473892236783 51.33717045828378 -0.4490814007266446 -0.7191151305562649 -1.1162851012561172 -93.40896981618839 -21.648242093447244 -168.26473965004377 6.3611093629270335e-15 -3.1805546814635168e-15 1.7655625192200634e-31
33.39999771118164 1.2000000476837158 -132.79998779296875 -2.385943908869548 -5.232989576123514 78.53270980867495 8.124444009144682 3.597308855844517 -0.2566249899844814 -2.0603212873951259e-07 1.8668432183735018e-07 -17.283766355672018 99.48164648882968 8.361584750549337 170.02955972501383 -4.693126326493891e-06 3.977199321813444e-06 29.91320973351421 9.50511606093261e-07 -16.82819427696214 15.712770349946924 0.0 -1.5902773407317584e-15 0.0 -100.3488801761739 -6.493685647146456 -177.29707566481258 2.1095948278962084e-06 1.2295232418390113e-06 -28.025388812159424 -179.9999984416086 -36.009725899234844 140.08070448151335 6.361109362927035e-15 -1.5902773407317584e-15 7.951386703658793e-15 18.516462392064437 10.790474423277002 -59.9008957551203 0.08989878491941036 -0.2670474792586585 0.3335986895948796 109.75489924839053 -33.16020819466142 169.37920232570016 -7.156248033292914e-15 -3.1805546814635168e-15 -1.9862578341225716e-31 -6.990096413196222 3.162638702702932 48.680245046379916 -0.4833661177494815 -0.527170540354942 -0.7709975664501482 -94.52349423107697 -23.808033339272843 -166.96213797485254 8.965747167914385e-32 -3.2302508483613835e-15 3.180554681463516e-15
33.39999771118164 1.2000000476837158 -132.79998779296875 -2.3662476022267276 -4.720513250414896 78.5398976552981 7.45651021341527 3.495853427558396 -0.23948978497796128 -2.8286388887174614e-07 -3.932645592089002e-07 -17.301010199565248 100.0829572084048 8.460202687189671 170.59564316492632 4.235453613020077e-07 -4.197201597612487e-06 30.713613751880597 5.300869400753412e-06 -17.972204302221424 16.437974636218183 4.4139062980501586e-32 1.5902773407317584e-15 -3.1805546814635168e-15 -99.89872484057597 -4.802164791375947 -177.08321837345318 1.0622766911455184e-06 2.8707404637747504e-06 -26.2664362452667 -179.99999753795316 -36.530097093840574 137.24687412435554 3.1805546814635168e-15 -1.5902773407317582e-15 4.770832022195275e-15 17.870317895173525 10.688833912409631 -59.697392857254506 0.13014835128129162 -0.10417231031565884 0.13009092979499748 110.02706116943428 -33.62582062331191 169.4082410805314 -8.34895603884173e-15 -1.590277340731758e-15 -3.1805546814635164e-15 -7.495384605292891 3.08136611751187 48.66437026493273 -0.4833661177494815 -0.527170540354942 -0.7709975664501482 -94.52349423107697 -23.808033339272843 -166.96213797485254 8.965747167914385e-32 -3.2302508483613835e-15 3.180554681463516e-15
33.5 1.2000000476837158 -132.6999969482422 -2.366247926742563 -5.190052722481334 78.473483770323 8.116828437969538 3.4628031490360756 -0.20229590521274607 1.0023860791367389e-07 3.9292797675233035e-07 -17.580918873287764 100.39934163961946 8.029211179573288 170.99373097515155 -6.715802558775076e-07 2.055782695931889e-06 31.641940730823432 -4.849320213240778e-07 -20.338396685520532 16.380643915674494 -3.1805546814635168e-15 -6.361109362927033e-15 -3.1805546814635168e-15 -99.95789988391424 -2.409102653013445 -176.8605951219161 -4.849241480960001e-06 -2.9507858585576902e-06 -24.78561188819734 -179.99999650098786 -38.34967681518054 136.23834555707683 0.0 0.0 -9.54166404439055e-15 18.159325074183823 10.912198292289492 -58.75089043058015 0.2713546213771166 -0.17693250901561572 0.21848785127571385 111.24061939203436 -35.019249332003156 169.5848796606344 8.74652537402467e-15 -1.5902773407317584e-15 1.2138242319637935e-31 -7.338085617319092 3.2442331447036463 50.17625447734188 -0.4658763008858183 -0.7161017825178027 -1.0795154227446107 -95.18123980602994 -23.273863934352494 -167.95014350293317 0.0 0.0 0.0
33.599998474121094 1.2000000476837158 -132.59999084472656 -1.893392924490855 -5.191637362599572 78.17289271111187 7.836239405895064 3.933319073269496 -0.21607435652818682 -2.5392814763976065e-07 -2.3907491369146356e-08 -17.309979041929214 100.9691285518828 8.103037853869932 171.32133007879722 1.1363092106718377e-06 -2.6702454246419505e-06 32.4917930660799 -1.1602968757050638e-07 -17.583938394809287 16.582612706918678 0.0 6.361109362927033e-15 0.0 -99.64779721245559 -0.8149272781220129 -176.4333707612502 3.794037714600726e-07 -4.5520079503877126e-07 -23.66776632869815 -179.99999659137364 -38.89470179478263 136.6632843135303 3.1805546814635168e-15 6.3611093629270335e-15 1.5902773407317582e-15 18.02936983258366 11.457512436514644 -57.981545870248446 0.1527553320807303 -0.13670872746842824 0.16779713753753067 111.77073672558181 -34.596077500592976 169.91035328341408 -3.975693351829396e-15 4.770832022195275e-15 -3.1805546814635168e-15 -7.3203450747227 3.6884967135651534 49.8748019097692 -0.4667178431559187 -0.7149664070006753 -1.0831504817447113 -95.27838475922779 -23.976909093781835 -167.7314644329467 0.0 0.0 0.0
